<svg id="svg" version="1.1" xmlns="http://www.w3.org/2000/svg" width="400" height="400" viewBox="0, 0, 400,400">
    <g id="svgg">
        <path id="path0"
              d="M59.570 242.933 C 54.483 244.228,51.438 249.346,51.635 256.273 C 51.674 257.657,51.325 262.305,50.858 266.602 C 50.039 274.149,49.390 277.629,44.007 303.320 C 41.513 315.225,41.137 317.680,40.807 324.219 C 40.453 331.223,39.989 334.076,38.667 337.379 C 36.000 344.040,39.009 349.609,45.275 349.609 C 52.543 349.609,55.478 342.930,56.430 324.219 C 56.680 319.311,57.287 316.019,62.919 289.063 C 63.974 284.014,65.123 277.861,65.471 275.391 C 65.820 272.920,66.217 270.586,66.354 270.205 C 66.785 269.001,71.235 274.829,74.281 280.587 C 75.771 283.402,77.136 285.890,77.315 286.115 C 78.123 287.131,82.188 295.254,84.517 300.504 C 88.196 308.801,89.536 310.167,93.971 310.148 C 100.604 310.118,103.282 304.898,101.583 295.313 C 100.542 289.444,100.132 278.570,100.861 276.184 L 101.395 274.438 103.252 278.034 C 104.656 280.752,105.341 282.723,106.057 286.106 C 107.067 290.873,108.508 294.974,110.903 299.893 C 114.252 306.772,116.594 312.747,117.159 315.853 C 118.044 320.716,121.319 332.526,122.838 336.328 C 125.163 342.150,126.509 343.421,130.612 343.667 C 137.599 344.086,140.963 337.313,137.375 330.051 C 136.584 328.451,135.935 326.879,135.933 326.559 C 135.931 326.239,135.405 324.239,134.765 322.116 C 134.124 319.993,133.168 316.213,132.639 313.717 C 131.469 308.199,130.155 304.433,127.035 297.656 C 123.126 289.165,122.146 286.660,121.468 283.426 C 120.227 277.506,119.618 275.941,115.076 267.007 C 112.669 262.272,109.946 256.603,109.024 254.408 C 105.419 245.828,102.260 243.515,96.335 245.119 C 91.642 246.390,89.612 249.158,89.033 255.078 C 88.231 263.265,87.058 269.531,86.326 269.531 C 86.205 269.531,85.776 268.960,85.373 268.262 C 84.478 266.711,79.751 260.822,75.759 256.285 C 74.136 254.440,71.889 251.699,70.766 250.195 C 69.644 248.691,68.192 246.799,67.539 245.990 C 65.585 243.568,62.190 242.266,59.570 242.933 M252.221 283.210 C 250.439 283.745,248.450 285.500,247.567 287.317 C 246.696 289.110,246.989 304.332,247.984 308.984 C 248.191 309.951,248.563 311.797,248.812 313.086 C 249.061 314.375,249.601 317.100,250.012 319.141 C 250.424 321.182,250.867 325.400,250.996 328.516 C 251.125 331.631,251.394 335.135,251.592 336.302 C 251.791 337.470,251.953 339.128,251.953 339.987 C 251.953 346.756,260.777 350.021,265.360 344.947 C 267.765 342.285,267.951 339.948,266.811 326.758 C 266.267 320.460,266.524 309.411,267.241 308.263 C 267.497 307.852,268.952 306.855,270.474 306.046 C 271.997 305.237,274.209 304.007,275.391 303.313 C 276.572 302.619,278.448 301.756,279.560 301.395 C 287.576 298.791,286.779 287.694,278.464 286.134 C 276.516 285.769,272.166 287.309,266.938 290.214 C 262.082 292.914,262.158 292.890,262.397 291.639 C 263.357 286.619,257.374 281.663,252.221 283.210 M347.562 284.540 C 345.403 285.311,344.248 286.176,343.207 287.803 C 342.134 289.480,340.867 290.679,337.999 292.731 C 325.728 301.513,327.388 315.223,341.295 319.945 C 345.330 321.316,352.072 325.786,353.167 327.819 C 354.149 329.639,347.334 330.526,341.797 329.299 C 337.915 328.438,335.866 328.596,333.725 329.922 C 326.570 334.354,330.779 347.111,339.006 345.928 C 340.004 345.784,343.281 345.621,346.289 345.565 C 375.142 345.027,377.506 319.031,349.846 306.453 L 347.089 305.199 348.838 304.106 C 351.213 302.621,357.354 296.352,358.039 294.713 C 360.699 288.346,354.302 282.135,347.562 284.540 M217.773 284.831 C 204.174 287.565,196.274 298.522,195.445 315.800 L 195.198 320.951 193.806 320.241 C 193.040 319.851,192.093 319.531,191.702 319.531 C 191.311 319.531,189.722 318.577,188.171 317.410 C 186.620 316.244,184.209 314.730,182.813 314.046 C 179.613 312.479,178.311 311.266,177.108 308.733 C 175.543 305.437,173.032 303.126,171.012 303.125 C 170.662 303.124,170.500 302.438,170.483 300.878 C 170.325 286.831,148.959 286.957,142.527 301.043 C 140.899 304.608,140.194 313.750,141.376 315.959 C 141.607 316.391,141.797 317.162,141.797 317.671 C 141.797 321.514,146.532 331.617,150.000 335.173 C 154.846 340.143,157.458 341.176,165.234 341.197 C 173.161 341.218,175.819 339.392,177.910 332.488 C 178.797 329.558,178.359 329.531,182.734 332.790 C 189.962 338.176,195.494 338.033,198.139 332.390 C 199.200 330.127,199.068 330.104,201.385 332.959 C 205.345 337.839,212.436 341.956,218.555 342.929 C 222.420 343.544,229.386 343.745,231.137 343.292 C 231.951 343.082,233.320 342.775,234.180 342.610 C 235.039 342.445,236.533 341.946,237.500 341.502 C 238.467 341.057,240.015 340.492,240.940 340.246 C 247.569 338.484,248.425 328.544,242.227 325.306 C 238.867 323.551,235.126 323.906,232.588 326.221 C 228.791 329.685,218.556 328.215,213.875 323.534 C 210.017 319.676,210.084 310.824,214.018 304.624 C 215.992 301.514,221.092 299.217,222.624 300.749 C 226.614 304.739,234.013 302.813,235.519 297.391 C 238.091 288.129,229.968 282.379,217.773 284.831 M294.077 290.593 C 290.719 291.906,288.281 294.604,288.281 297.007 C 288.281 297.374,287.498 299.032,286.542 300.693 C 282.274 308.097,280.188 324.041,282.734 329.797 C 289.273 344.579,315.782 343.636,322.997 328.365 C 325.599 322.858,325.644 311.731,323.079 308.184 C 322.682 307.636,321.898 306.279,321.335 305.168 C 316.420 295.469,301.715 287.606,294.077 290.593 M303.512 308.246 C 309.704 312.731,311.519 321.353,306.755 323.659 C 305.148 324.437,300.832 324.852,298.635 324.440 L 297.266 324.183 297.278 321.564 C 297.303 316.108,298.304 311.360,300.057 308.389 C 301.040 306.724,301.392 306.709,303.512 308.246 M160.254 309.976 C 161.612 310.224,161.719 310.341,161.719 311.593 C 161.719 312.335,162.334 314.273,163.086 315.901 C 164.489 318.938,164.666 320.275,164.131 323.823 C 163.368 328.888,158.008 321.582,157.163 314.325 C 157.067 313.503,156.823 312.393,156.619 311.858 C 156.416 311.324,156.250 310.289,156.250 309.558 L 156.250 308.229 157.520 308.969 C 158.218 309.376,159.448 309.829,160.254 309.976 "
              stroke="none" fill="#0404fc" fill-rule="evenodd"></path>
        <path id="path1"
              d="M271.289 98.670 C 269.569 99.170,267.996 99.794,263.477 101.770 C 262.832 102.052,260.811 102.760,258.984 103.344 C 257.158 103.927,253.730 105.274,251.367 106.335 C 249.004 107.397,244.609 109.109,241.602 110.139 C 226.969 115.153,219.938 123.703,219.927 136.498 C 219.919 144.832,224.866 151.003,235.008 155.309 C 236.481 155.934,239.973 157.561,242.769 158.926 C 247.306 161.140,256.537 165.143,261.328 166.975 C 269.942 170.268,290.123 191.781,291.854 199.516 C 292.842 203.931,288.262 207.683,278.320 210.605 L 275.195 211.523 251.758 211.523 C 230.681 211.523,228.202 211.589,227.148 212.170 C 220.833 215.654,222.078 225.534,229.054 227.291 C 231.640 227.942,272.568 228.348,276.172 227.758 C 289.304 225.608,302.416 218.411,306.086 211.339 C 308.613 206.469,308.576 206.596,308.582 202.734 C 308.600 191.888,302.886 182.053,287.927 167.179 C 278.633 157.938,273.843 154.321,267.773 151.962 C 266.484 151.461,264.727 150.745,263.867 150.371 C 263.008 149.997,261.162 149.217,259.766 148.639 C 258.369 148.061,254.150 146.135,250.391 144.359 C 246.631 142.582,242.764 140.831,241.797 140.467 C 232.247 136.869,235.209 129.607,248.014 125.221 C 250.868 124.243,254.805 122.723,256.762 121.842 C 258.718 120.960,263.051 119.271,266.390 118.087 C 269.729 116.904,273.428 115.588,274.609 115.165 C 277.071 114.281,284.603 114.295,286.247 115.185 C 286.739 115.452,288.004 115.677,289.058 115.685 C 298.028 115.754,300.826 103.868,292.814 99.725 C 290.025 98.282,275.129 97.552,271.289 98.670 M165.409 100.552 C 162.180 102.127,154.423 102.816,151.416 101.794 C 149.181 101.036,131.288 100.875,129.420 101.597 C 128.815 101.830,127.441 102.102,126.367 102.199 C 125.293 102.297,123.623 102.585,122.656 102.838 C 120.307 103.452,106.711 103.407,100.195 102.762 C 94.796 102.228,68.082 101.751,65.395 102.141 C 62.126 102.615,54.237 108.872,52.735 112.181 C 50.280 117.592,54.458 124.219,60.325 124.219 C 61.673 124.219,62.498 124.509,63.840 125.455 C 68.931 129.043,75.580 126.116,76.731 119.779 L 77.005 118.269 86.061 118.507 C 96.850 118.791,99.490 118.962,101.452 119.507 C 102.265 119.733,105.232 119.918,108.046 119.920 L 113.163 119.922 113.841 121.582 C 115.859 126.521,118.244 130.770,121.350 134.961 C 137.407 156.626,149.868 189.615,146.116 200.522 C 144.000 206.673,143.260 206.792,114.301 205.641 L 108.876 205.425 106.879 203.331 C 103.683 199.978,99.205 199.526,91.846 201.811 C 80.925 205.203,78.027 214.454,86.326 219.434 L 88.442 220.703 95.688 220.703 C 99.900 220.703,103.506 220.884,104.299 221.135 C 108.127 222.347,141.503 222.979,145.703 221.919 C 152.780 220.133,157.702 215.398,161.376 206.844 L 163.385 202.164 163.172 195.906 C 162.824 185.678,160.115 174.759,154.308 160.183 C 150.444 150.486,141.151 133.955,134.986 125.815 C 132.552 122.600,130.469 119.268,130.469 118.589 C 130.469 117.457,144.650 117.161,149.097 118.200 C 151.174 118.685,153.000 118.773,157.422 118.600 C 170.478 118.089,175.269 116.592,177.304 112.387 C 180.804 105.157,172.633 97.027,165.409 100.552 "
              stroke="none" fill="#fc0404" fill-rule="evenodd"></path>
        <path id="path2" d="" stroke="none" fill="#4004100" fill-rule="evenodd"></path>
        <path id="path3" d="" stroke="none" fill="#4004100" fill-rule="evenodd"></path>
        <path id="path4" d="" stroke="none" fill="#4004100" fill-rule="evenodd"></path>
    </g>
</svg>
